<?xml version="1.0" encoding="UTF-8"?>
<svg width="23px" height="17px" viewBox="0 0 23 17" version="1.1" xmlns="http://www.w3.org/2000/svg" xmlns:xlink="http://www.w3.org/1999/xlink">
    <!-- Generator: sketchtool 52 (66869) - http://www.bohemiancoding.com/sketch -->
    <title>9F1A9A70-F70E-4A83-9F4C-DC3F813B9699</title>
    <desc>Created with sketchtool.</desc>
    <g id="01-Screens" stroke="none" stroke-width="1" fill="none" fill-rule="evenodd">
        <g id="Mobile_Homepage" transform="translate(-328.000000, -104.000000)" fill="#FFFFFF">
            <g id="header" transform="translate(0.000000, 72.000000)">
                <g id="Icon/Menu/White" transform="translate(328.000000, 32.000000)">
                    <g id="burgermenu_icon" transform="translate(0.258454, 0.646135)">
                        <path d="M22.5845411,7.90458937 C22.5845411,8.5444847 22.1328502,9.03381643 21.5843685,9.03381643 L1.00017253,9.03381643 C0.451690821,9.03381643 0,8.5444847 0,7.90458937 C0,7.26469404 0.451690821,6.77536232 1.00017253,6.77536232 L21.5521049,6.77536232 C22.1328502,6.77536232 22.5845411,7.26469404 22.5845411,7.90458937" id="Fill-1"></path>
                        <path d="M22.5845411,14.6799517 C22.5845411,15.319847 22.1328502,15.8091787 21.5843685,15.8091787 L1.00017253,15.8091787 C0.451690821,15.8091787 0,15.319847 0,14.6799517 C0,14.0400564 0.451690821,13.5507246 1.00017253,13.5507246 L21.5521049,13.5507246 C22.1328502,13.5507246 22.5845411,14.0400564 22.5845411,14.6799517" id="Fill-3"></path>
                        <path d="M22.5845411,1.12922705 C22.5845411,1.76912238 22.1328502,2.25845411 21.5843685,2.25845411 L1.00017253,2.25845411 C0.451690821,2.25845411 0,1.76912238 0,1.12922705 C0,0.489331723 0.451690821,0 1.00017253,0 L21.5521049,0 C22.1328502,0 22.5845411,0.489331723 22.5845411,1.12922705" id="Fill-5"></path>
                    </g>
                </g>
            </g>
        </g>
    </g>
</svg>