<?xml version="1.0" encoding="UTF-8"?>
<svg version="1.0" viewBox="0 0 730 730" xmlns="http://www.w3.org/2000/svg" xmlns:cc="http://creativecommons.org/ns#" xmlns:dc="http://purl.org/dc/elements/1.1/" xmlns:rdf="http://www.w3.org/1999/02/22-rdf-syntax-ns#">
<metadata>
<rdf:RDF>
<cc:Work rdf:about="">
<dc:format>image/svg+xml</dc:format>
<dc:type rdf:resource="http://purl.org/dc/dcmitype/StillImage"/>
</cc:Work>
</rdf:RDF>
</metadata>
<g fill-rule="evenodd">
<path d="m373.73 7.5317l-9.9843 19.753-9.9529 19.753 22.92 0.37387c81.245 1.2324 157.02 33.34 215.48 91.348 48.689 48.314 78.834 107.68 90.079 177.31 2.9234 18.101 2.9419 73.506 0.03139 91.628-11.166 69.522-41.253 129.28-89.168 177.06-48.495 48.357-108.17 78.479-177.08 89.416-36.295 5.7604-90.38 3.0218-126.19-6.3869l-8.4145-2.212-9.7959 20.033c-5.3822 11.018-9.796 20.594-9.796 21.279 0 1.4846 31.198 9.1 49.137 11.995 6.9891 1.1278 21.497 2.4982 32.214 3.0532 87.844 4.5497 167.25-19.669 237.77-72.499 17.941-13.439 53.479-48.748 67.19-66.766 45.797-60.184 70.36-128.26 74.003-205.07 1.825-38.477-4.9494-85.077-18.148-124.96-38.158-115.32-136.32-206.03-254.1-234.82-21.511-5.2584-55.025-10.281-68.697-10.281h-7.504zm-51.146 2.2432c-8.952-0.02701-46.139 8.132-68.352 15.36-118.51 38.561-211.08 139.8-238.18 260.49-11.767 52.399-11.331 112.84 1.2245 163.97 25.231 102.76 95.84 190.07 192.06 237.5l12.716 6.2623c26.996-60.155 56.175-119.3 83.862-179.14l-53.375 0.24924-26.531 52.933c-14.605 29.128-27.996 58.42-28.069 59.102-59.913-26.802-110.71-113.38-135.04-184.88-7.3577-28.93-9.6852-47.941-9.7018-79.322-0.022686-43.049 6.5227-78.17 21.727-116.55 37.121-93.712 118-164.42 216.61-189.39l15.228-3.8633 8.9168-20.438c4.8924-11.253 8.8854-21.026 8.8854-21.715 0-0.36424-0.69917-0.55694-1.978-0.5608zm29.859 39.848l-97.363 202.14c-53.399 110.27-103.84 213.92-112.09 230.33l-14.976 29.847h60.973 61.005l57.802-1.6824c6.3487-14.497 14.285-28.353 20.157-43.057l-51.554-0.03116c-27.521-0.65587-45.646-0.98865-72.12-1.3085 0-0.37775 45.638-93.275 101.44-206.41l101.76-207.31-8.7284-1.0904c-4.7856-0.60209-17.158-1.186-27.504-1.2774l-18.807-0.15578zm70.864 122.57c-1.4134 0.77642-144.96 289.31-144.98 291.4l52.511-0.4088 45.369-93.747c24.954-51.553 45.941-94.333 46.625-95.087 0.684-0.754 23.117 41.499 49.859 93.903 26.742 52.403 48.136 95.767 47.535 96.364-0.60069 0.59676-42.988 1.3195-94.192 1.6201l-93.093 0.5608-21.413 44.303 103.52-0.52964c56.933-0.28264 121.43-1.0403 143.33-1.6824l39.843-1.1528-86.813-168.15c-47.741-92.471-87.381-167.79-88.101-167.4z" stroke="#000" stroke-width="5.0634"/>
</g>
</svg>
